<?xml version="1.0" standalone="no"?>
<!DOCTYPE svg PUBLIC "-//W3C//DTD SVG 20010904//EN"
 "http://www.w3.org/TR/2001/REC-SVG-20010904/DTD/svg10.dtd">
<svg version="1.0" xmlns="http://www.w3.org/2000/svg"
 width="2500.000000pt" height="500.000000pt" viewBox="0 0 2500.000000 500.000000"
 preserveAspectRatio="xMidYMid meet">

<g transform="translate(0.000000,500.000000) scale(0.100000,-0.100000)"
fill="#000000" stroke="none">
<path d="M4748 4432 c8 -88 -22 -128 -149 -200 -113 -64 -178 -171 -140 -231
7 -11 12 -4 20 26 16 59 39 83 155 162 107 73 138 104 150 154 7 31 -6 93 -28
122 -12 17 -13 13 -8 -33z"/>
<path d="M4875 4305 c4 -11 10 -55 13 -97 8 -133 -30 -184 -226 -302 -203
-122 -277 -212 -277 -336 1 -42 7 -76 17 -95 l17 -30 1 31 c0 17 7 55 16 84
21 70 103 153 232 235 52 33 120 78 151 101 94 67 151 173 136 253 -8 43 -46
128 -70 156 l-17 20 7 -20z"/>
<path d="M5064 4105 c3 -11 13 -49 22 -85 10 -37 18 -104 18 -155 1 -86 -1
-95 -37 -167 -51 -104 -128 -171 -326 -289 -86 -51 -190 -116 -232 -145 -90
-63 -207 -183 -232 -239 l-18 -40 -157 -1 c-233 -1 -431 -43 -605 -130 -136
-68 -217 -146 -217 -210 0 -16 -14 -69 -30 -118 -54 -161 -65 -234 -64 -426 1
-193 17 -280 84 -445 88 -221 261 -412 473 -521 93 -48 119 -54 64 -14 -17 13
-76 62 -130 108 -201 172 -307 336 -368 568 -22 80 -24 110 -24 294 0 158 4
230 19 313 11 59 23 107 28 107 5 0 34 -16 65 -36 107 -69 262 -118 453 -145
120 -17 600 -17 720 0 215 30 378 73 483 129 29 15 55 28 60 30 11 6 73 -134
96 -218 28 -101 28 -252 0 -363 -26 -107 -102 -261 -180 -367 -112 -153 -345
-361 -506 -452 -29 -17 -53 -31 -53 -33 0 -5 215 91 293 130 314 159 496 389
573 721 23 98 25 317 5 419 -26 132 -127 388 -142 363 -5 -7 -9 -23 -9 -35 0
-30 -59 -95 -121 -133 -53 -32 -62 -30 -27 7 14 15 22 36 22 58 0 117 -270
225 -646 260 -38 4 -68 10 -68 13 0 4 12 25 26 45 l26 39 111 -7 c62 -3 132
-8 157 -11 67 -7 29 11 -62 30 -42 9 -94 16 -115 17 -84 1 -84 10 4 80 45 35
155 109 245 163 90 55 195 124 235 154 217 161 288 348 208 545 -24 60 -72
145 -106 187 -17 21 -19 22 -15 5z m-820 -1197 c-3 -18 -7 -38 -9 -44 -2 -7
-42 -14 -97 -18 -190 -14 -302 -38 -456 -98 -57 -22 -102 -41 -100 -43 2 -2
41 8 88 21 121 35 295 64 437 71 l122 6 6 -29 c10 -50 48 -165 57 -170 4 -3 8
12 8 32 0 21 5 66 11 101 l11 63 65 0 c280 0 583 -122 583 -234 0 -90 -129
-154 -354 -175 -143 -14 -563 -14 -702 0 -135 13 -311 57 -397 98 -68 33 -132
93 -143 136 -16 62 25 114 141 178 165 91 356 133 617 136 l118 1 -6 -32z"/>
<path d="M12276 3559 c-233 -34 -419 -136 -583 -321 -197 -222 -294 -554 -263
-907 25 -298 123 -521 307 -702 205 -201 418 -279 731 -266 156 6 221 21 338
77 168 81 309 224 397 404 49 99 92 220 83 234 -6 10 -95 37 -100 31 -1 -2
-13 -33 -26 -69 -124 -346 -361 -530 -682 -530 -208 0 -374 62 -512 191 -173
161 -264 351 -297 619 -23 187 6 455 67 616 130 347 368 524 704 524 175 0
332 -54 456 -157 91 -76 179 -220 211 -345 l17 -68 43 0 43 0 0 296 0 295 -42
-3 c-42 -3 -43 -4 -50 -47 -14 -82 -36 -88 -124 -34 -119 73 -161 94 -249 122
-147 48 -316 62 -469 40z"/>
<path d="M18110 3539 c-127 -21 -248 -110 -302 -221 -44 -90 -58 -167 -58
-330 l0 -148 -135 0 -135 0 0 -55 0 -55 135 0 136 0 -3 -553 -3 -553 -25 -37
c-29 -43 -77 -65 -161 -74 l-59 -6 0 -38 0 -39 355 0 355 0 0 39 0 38 -82 8
c-94 8 -148 31 -169 72 -12 23 -14 123 -17 585 l-3 558 203 2 203 3 3 53 3 52
-207 0 -206 0 4 178 c6 199 23 274 79 351 56 78 192 111 281 67 37 -18 37 -18
23 -47 -23 -44 -19 -113 8 -144 24 -29 92 -43 141 -31 58 14 90 97 66 170 -23
72 -128 135 -257 155 -81 12 -96 12 -173 0z"/>
<path d="M8061 3508 c-169 -434 -727 -1818 -744 -1845 -31 -49 -100 -111 -142
-129 -19 -7 -59 -17 -89 -20 l-56 -7 0 -38 0 -39 345 0 345 0 0 40 0 40 -47 0
c-66 0 -151 24 -179 51 -43 40 -37 66 99 419 l63 165 416 3 416 2 72 -177
c123 -299 136 -345 109 -395 -16 -31 -92 -59 -175 -65 l-74 -6 0 -38 0 -39
385 0 385 0 0 39 c0 39 0 39 -47 46 -107 15 -194 74 -240 162 -17 32 -181 429
-363 883 -183 454 -346 858 -362 898 l-30 72 -39 0 c-32 0 -41 -4 -48 -22z
m377 -1234 c-3 -2 -169 -3 -369 -2 l-365 3 185 464 184 464 185 -462 c101
-254 182 -464 180 -467z"/>
<path d="M9314 3487 c-3 -9 -4 -28 -2 -43 3 -28 5 -29 89 -40 98 -13 153 -36
183 -77 21 -28 21 -38 24 -825 2 -438 0 -816 -3 -840 -13 -88 -80 -131 -229
-147 l-66 -7 0 -40 0 -39 573 4 c597 5 626 7 786 53 215 61 358 199 396 381
66 310 -98 521 -480 616 -69 17 -123 32 -122 34 2 2 39 12 83 23 127 32 231
89 302 164 87 93 107 149 106 296 0 154 -21 209 -113 301 -70 69 -140 109
-262 149 -124 39 -164 42 -716 47 -477 4 -544 3 -549 -10z m1111 -111 c145
-40 226 -100 277 -204 32 -64 33 -72 33 -182 0 -106 -2 -120 -29 -177 -53
-115 -162 -191 -326 -228 -55 -13 -142 -18 -323 -22 l-248 -5 3 348 c3 341 4
350 26 396 43 88 81 99 332 94 141 -3 212 -8 255 -20z m-45 -941 c230 -37 365
-119 434 -264 30 -63 31 -71 31 -191 -1 -114 -3 -130 -27 -182 -52 -113 -169
-199 -323 -238 -166 -42 -467 -51 -552 -15 -48 20 -91 60 -112 105 -14 30 -16
90 -19 418 l-3 382 238 0 c164 0 267 -5 333 -15z"/>
<path d="M14920 2869 c-126 -32 -195 -73 -295 -174 -74 -73 -99 -106 -132
-175 -60 -123 -74 -183 -80 -351 -10 -273 50 -445 209 -600 124 -122 271 -180
458 -182 256 -2 423 87 564 303 20 30 36 58 36 61 0 4 -18 21 -39 39 l-40 31
-40 -59 c-113 -167 -275 -251 -461 -239 -152 10 -252 65 -347 192 -101 133
-144 314 -123 517 25 253 130 442 289 521 59 29 76 32 172 35 151 6 235 -24
319 -112 l35 -37 -28 -22 c-54 -43 -55 -158 -1 -193 60 -40 164 -23 200 31 25
38 23 138 -4 190 -28 56 -117 137 -191 175 -141 71 -342 91 -501 49z"/>
<path d="M16402 2870 c-134 -35 -256 -118 -310 -208 -22 -39 -27 -59 -27 -114
0 -63 2 -70 32 -99 60 -61 182 -49 218 21 30 58 15 128 -34 158 l-30 18 21 30
c57 81 160 118 307 112 79 -3 105 -9 147 -31 64 -33 118 -94 144 -164 17 -47
49 -278 39 -287 -2 -2 -75 -9 -162 -15 -337 -25 -542 -94 -666 -227 -83 -88
-105 -147 -105 -284 -1 -99 1 -109 32 -172 56 -114 159 -185 309 -214 207 -39
393 17 539 162 63 63 74 71 74 51 0 -39 29 -122 52 -152 31 -40 93 -65 161
-65 85 0 141 33 193 114 18 29 18 29 -10 53 l-28 23 -22 -32 c-44 -66 -112
-74 -142 -16 -34 66 -37 99 -44 548 -6 434 -7 458 -28 514 -59 160 -145 236
-317 281 -84 21 -250 19 -343 -5z m508 -871 c0 -192 -1 -202 -25 -252 -71
-149 -233 -247 -410 -247 -132 0 -213 47 -266 155 -27 56 -32 75 -32 144 0 64
5 89 27 137 44 96 105 147 235 194 111 41 213 56 444 69 l27 1 0 -201z"/>
<path d="M19001 2874 c-117 -26 -206 -77 -301 -173 -68 -68 -94 -103 -127
-171 -59 -123 -75 -192 -80 -362 -4 -113 -1 -165 12 -230 42 -209 153 -367
328 -466 203 -117 503 -116 702 1 89 52 188 156 235 248 l18 35 -33 27 c-42
34 -47 34 -68 -2 -68 -115 -181 -206 -301 -243 -98 -30 -247 -30 -330 1 -125
45 -223 133 -288 257 -47 89 -67 166 -75 287 l-6 97 556 0 c439 0 557 3 557
13 -1 6 -5 55 -9 107 -26 289 -198 504 -457 570 -91 24 -236 25 -333 4z m336
-118 c76 -35 163 -122 198 -198 27 -60 51 -150 58 -220 l5 -48 -449 0 c-247 0
-449 1 -449 3 0 2 5 30 11 63 34 188 157 355 306 415 39 16 68 19 153 16 90
-2 114 -7 167 -31z"/>
<path d="M5464 2401 c-45 -27 -64 -59 -64 -106 0 -50 20 -80 90 -136 30 -25
73 -71 95 -103 40 -57 40 -59 40 -149 0 -88 -2 -95 -40 -165 -59 -108 -208
-269 -375 -405 l-35 -29 45 25 c280 154 427 265 549 415 168 208 173 417 13
563 -109 100 -241 137 -318 90z"/>
<path d="M2766 1276 c-138 -79 -206 -163 -206 -253 0 -69 25 -117 89 -175 146
-132 563 -257 1035 -313 319 -37 768 -39 1096 -5 481 51 901 180 1058 325 101
93 114 167 50 268 -36 56 -42 60 -22 12 19 -45 18 -109 -2 -150 -41 -88 -199
-185 -389 -240 -134 -39 -458 -102 -641 -124 -562 -70 -1043 -43 -1564 85
-381 95 -543 172 -602 288 -49 96 10 210 158 303 43 27 -6 10 -60 -21z"/>
</g>
</svg>
